<svg xmlns="http://www.w3.org/2000/svg" width="512" height="512" viewBox="0 0 512 512"><path fill="#e38182" d="M256 13.915c-110.066 0-199.295 88.176-199.295 196.949 0 172.334 199.295 295.428 199.295 295.428s199.296-120.014 199.296-295.428c0-108.773-89.231-196.949-199.296-196.949zm0 281.358c-51.793 0-93.786-41.993-93.786-93.786s41.993-93.786 93.786-93.786 93.786 41.993 93.786 93.786-41.993 93.786-93.786 93.786z"/><path fill="#d4383a" d="M256 13.915v93.787c51.793 0 93.786 41.993 93.786 93.786s-41.993 93.785-93.786 93.785v211.019s199.296-120.014 199.296-295.428c0-108.773-89.231-196.949-199.296-196.949z"/></svg>